<mxfile
  host="Electron" 
  agent="Mozilla/5.0 (Macintosh; Intel Mac OS X 10_15_7) AppleWebKit/537.36 (KHTML, like Gecko) draw.io/25.0.2 Chrome/128.0.6613.186 Electron/32.2.5 Safari/537.36" 
  version="25.0.2"
  >
  <diagram
    name="-"
    >
    <mxGraphModel
      grid="1" 
      gridSize="10" 
      guides="1" 
      tooltips="1" 
      connect="1" 
      arrows="1" 
      fold="1" 
      page="1" 
      pageScale="1" 
      pageWidth="1" 
      pageHeight="1" 
      math="0" 
      shadow="0"
      >
      <root>
        <mxCell
          id="page"
          />
        <mxCell
          id="root" 
          parent="page"
          />
        <mxCell
          style="verticalAlign=top;aspect=fixed;align=center;spacingLeft=5;spacingRight=5;spacingBottom=5;strokeColor=none;" 
          id="shape_" 
          parent="root" 
          value=" " 
          vertex="1"
          >
          <mxGeometry
            as="geometry" 
            width="98" 
            height="100" 
            x="0" 
            y="0"
            />
          </mxCell>
        <mxCell
          style="rounded=1;whiteSpace=wrap;verticalAlign=top;align=center;editableCssRules=.*;html=1;shape=image;verticalLabelPosition=bottom;labelBackgroundColor=#ffffff;aspect=fixed;imageAspect=0;image=data:image/svg+xml,PHN2ZyB4bWxucz0iaHR0cDovL3d3dy53My5vcmcvMjAwMC9zdmciIHhtbG5zOnY9Imh0dHBzOi8vdmVjdGEuaW8vbmFubyIgd2lkdGg9IjE4LjgyMzUxNDkzODM1NDQ5MiIgaGVpZ2h0PSIyMC4wNzA1Mzc1NjcxMzg2NzIiIHZpZXdCb3g9IjAuMDAwMDExMzM3Nzc3MzIzMjA1OTU1IDAuMDAwMDg1NjY1MDQ0MDI1NTE4IDE4LjgyMzUxNDkzODM1NDQ5MiAyMC4wNzA1Mzc1NjcxMzg2NzIiPiYjeGE7CTxzdHlsZSB0eXBlPSJ0ZXh0L2NzcyI+JiN4YTsJLnN0MHtmaWxsOiM0Mjg1ZjQ7fSYjeGE7CTwvc3R5bGU+JiN4YTsJPHBhdGggY2xhc3M9InN0MCIgZD0iTTE2LjkzIDQuOTc2YTEwLjQzIDEwLjQzIDAgMCAxLTEgLjkyIDguMDkgOC4wOSAwIDAgMS0xMC41MSAxMS44MWgxLjc1YTcuNTEgNy41MSAwIDAgMS0uODYtMS4zSDMuNzNhOC43NSA4Ljc1IDAgMCAxLTEtMS4xOWgzLjA2YTEwLjM4IDEwLjM4IDAgMCAxLS4zNy0xLjMxSDIuMDFhOCA4IDAgMCAxLS40Mi0xLjE5aDMuNTdjLS4wNy0uNDItLjExLS44NS0uMTQtMS4zSDEuMzZhNi41MSA2LjUxIDAgMCAxIDAtLjc3di0uNDNoMy42M2ExMS4zNCAxMS4zNCAwIDAgMSAuMDgtMS4zSDEuNWE4LjE2IDguMTYgMCAwIDEgLjM2LTEuMTloMy40YTkuNTIgOS41MiAwIDAgMSAuMzMtMS4zSDIuNTJhOCA4IDAgMCAxIC45LTEuMTloMi42MWE5LjIgOS4yIDAgMCAxIC43MS0xLjMxSDQuOTJhOC4wNiA4LjA2IDAgMCAxIDcuNzQtLjY5IDEwLjcgMTAuNyAwIDAgMCAxLjI5IDMuMTlzMi45My0xLjY3IDMuMzgtMy40NGEyLjQyIDIuNDIgMCAwIDAtNC42OC0xLjIzdi4wN2E5LjQxIDkuNDEgMCAxIDAgNi4xNyA4LjgyIDguNzEgOC43MSAwIDAgMC0xLjg5LTUuNjd6bS0zLjAxLTIuOTJhMS4xNCAxLjE0IDAgMSAxIC44MSAxLjM5aDBhMS4xMyAxLjEzIDAgMCAxLS44MS0xLjM5eiIvPiYjeGE7PC9zdmc+;strokeColor=none;" 
          id="beyondcorp_" 
          parent="shape_" 
          value=" " 
          vertex="1"
          >
          <mxGeometry
            width="38" 
            height="40" 
            as="geometry" 
            x="30" 
            y="30"
            />
          </mxCell>
        </root>
      </mxGraphModel>
    </diagram>
  </mxfile>